<svg width="100" height="100" viewBox="0 0 100 100" xmlns="http://www.w3.org/2000/svg">
  <defs>
    <pattern id="silk-pattern" patternUnits="userSpaceOnUse" width="100" height="100">
      <path d="M10,10 Q50,0 90,10 T90,50 T50,90 T10,50 Z" fill="none" stroke="white" stroke-width="0.5" opacity="0.3" />
      <path d="M25,20 Q50,10 75,20 T75,50 T50,80 T25,50 Z" fill="none" stroke="white" stroke-width="0.5" opacity="0.2" />
      <circle cx="10" cy="10" r="1" fill="white" opacity="0.6" />
      <circle cx="30" cy="30" r="1" fill="white" opacity="0.6" />
      <circle cx="50" cy="15" r="1" fill="white" opacity="0.6" />
      <circle cx="70" cy="40" r="1" fill="white" opacity="0.6" />
      <circle cx="90" cy="20" r="1" fill="white" opacity="0.6" />
      <circle cx="15" cy="50" r="1" fill="white" opacity="0.6" />
      <circle cx="35" cy="70" r="1" fill="white" opacity="0.6" />
      <circle cx="55" cy="60" r="1" fill="white" opacity="0.6" />
      <circle cx="75" cy="80" r="1" fill="white" opacity="0.6" />
      <circle cx="20" cy="85" r="1" fill="white" opacity="0.6" />
      <circle cx="60" cy="95" r="1" fill="white" opacity="0.6" />
      <circle cx="85" cy="65" r="1" fill="white" opacity="0.6" />
    </pattern>
  </defs>
  <rect width="100%" height="100%" fill="url(#silk-pattern)" />
</svg> 